<?xml version="1.0" standalone="no"?>
<!DOCTYPE svg PUBLIC "-//W3C//DTD SVG 20010904//EN"
 "http://www.w3.org/TR/2001/REC-SVG-20010904/DTD/svg10.dtd">
<svg version="1.0" xmlns="http://www.w3.org/2000/svg"
 width="175.000000pt" height="127.000000pt" viewBox="0 0 175.000000 127.000000"
 preserveAspectRatio="xMidYMid meet">
<metadata>
Created by potrace 1.15, written by Peter Selinger 2001-2017
</metadata>
<g transform="translate(0.000000,127.000000) scale(0.100000,-0.100000)"
fill="#000000" stroke="none">
<path d="M0 1240 c0 -25 4 -30 24 -30 55 0 56 -9 56 -440 0 -431 -1 -440 -56
-440 -20 0 -24 -5 -24 -30 l0 -30 115 0 115 0 0 30 c0 23 -5 30 -19 30 -11 0
-27 7 -35 16 -14 13 -16 66 -16 423 0 382 1 409 18 424 10 10 26 17 35 17 12
0 17 9 17 30 l0 30 -115 0 -115 0 0 -30z"/>
<path d="M430 1101 c0 -93 -2 -175 -5 -183 -4 -9 7 -14 41 -16 76 -4 142 -49
179 -122 46 -91 30 -202 -39 -279 -30 -33 -114 -71 -161 -72 -22 0 -34 -3 -27
-6 8 -3 12 -28 12 -74 l0 -69 194 0 c168 0 195 2 200 16 3 9 6 227 6 484 0
454 -1 470 -19 480 -12 6 -95 10 -200 10 l-181 0 0 -169z m370 114 c0 -19 -6
-25 -22 -26 -21 -2 -21 -2 2 -7 l25 -5 -25 -8 c-24 -7 -24 -7 -2 -8 32 -1 27
-21 -5 -22 l-28 -2 28 -4 c21 -3 27 -10 27 -29 0 -25 -1 -25 -77 -22 -72 3
-78 5 -81 26 -3 19 1 22 30 24 l33 1 -32 4 c-40 5 -44 23 -5 24 l27 1 -30 8
-30 8 30 2 30 3 -27 4 c-22 3 -28 10 -28 29 0 23 2 24 80 24 79 0 80 0 80 -25z"/>
<path d="M292 738 c-27 -30 -37 -71 -20 -85 7 -6 29 -13 48 -15 31 -3 35 -7
43 -43 16 -78 28 -115 38 -115 17 0 59 52 65 79 2 14 14 43 25 64 16 31 17 37
4 37 -8 0 -25 16 -37 35 -21 32 -34 40 -64 36 -6 -1 -17 6 -24 14 -18 22 -53
18 -78 -7z"/>
<path d="M38 177 c-36 -21 -38 -25 -38 -74 0 -50 1 -52 45 -76 l45 -26 45 26
c44 24 45 26 45 76 0 50 -2 53 -40 75 -48 27 -55 27 -102 -1z m90 -17 c27 -17
32 -26 32 -58 0 -33 -4 -40 -36 -57 -34 -18 -36 -18 -70 0 -30 16 -34 23 -34
57 0 33 5 41 33 58 17 11 34 20 37 20 3 0 20 -9 38 -20z"/>
</g>
</svg>
